<?xml version="1.0" encoding="utf-8"?>
<svg xmlns="http://www.w3.org/2000/svg" viewBox="0 0 500 500" xmlns:bx="https://boxy-svg.com" width="500px" height="500px"><defs><bx:export><bx:file format="svg" path="Sem título.svg"/></bx:export></defs><g transform="matrix(0.063357, 0, 0, -0.063357, -77.777443, 563.254639)" fill="#000000" stroke="none" style=""><path d="M2675 8464 c-27 -2 -124 -8 -215 -14 -91 -6 -183 -16 -205 -21 -57 -15 -110 -52 -142 -101 -25 -37 -28 -53 -33 -152 -5 -111 -5 -111 -145 -116 -167 -6 -206 -21 -285 -106 -88 -97 -81 139 -78 -2489 3 -2330 3 -2330 31 -2387 32 -65 89 -121 156 -152 46 -21 46 -21 1447 -26 1401 -5 1401 -5 1614 -110 212 -105 212 -105 298 -105 97 0 82 -6 374 148 128 67 128 67 1515 67 908 0 1404 4 1433 11 60 13 139 66 174 117 60 87 56 -81 62 2416 5 1775 3 2307 -6 2352 -23 109 -73 180 -162 230 -50 27 -61 29 -193 34 -140 5 -140 5 -146 115 -6 118 -16 149 -65 199 -43 43 -77 56 -167 66 -240 27 -874 38 -1132 20 -455 -33 -963 -197 -1294 -417 -116 -77 -294 -239 -346 -313 -15 -22 -33 -40 -39 -39 -6 0 -36 32 -66 71 -257 332 -868 612 -1493 684 -124 14 -761 27 -892 18z m752 -319 c383 -38 653 -108 929 -240 159 -75 275 -155 385 -265 106 -105 166 -196 205 -310 24 -72 24 -72 24 -631 0 -558 0 -558 38 -598 67 -70 164 -65 226 12 31 39 31 39 36 605 5 567 5 567 38 644 73 170 178 291 346 403 356 236 767 363 1284 396 198 13 879 -3 913 -21 19 -11 19 -44 19 -2205 0 -1495 -3 -2196 -10 -2200 -6 -4 -61 -1 -123 7 -140 16 -617 16 -817 -1 -579 -49 -1120 -197 -1530 -419 -58 -31 -108 -58 -112 -60 -5 -2 -8 311 -8 695 0 427 -4 712 -10 733 -13 46 -68 99 -112 109 -40 9 -98 -7 -130 -36 -49 -44 -48 -24 -48 -781 0 -390 -3 -711 -6 -715 -3 -3 -69 28 -147 68 -404 210 -863 340 -1427 401 -211 24 -736 24 -895 2 -60 -9 -113 -14 -117 -12 -5 3 -8 990 -8 2193 0 1743 3 2191 13 2199 10 9 142 25 377 46 90 8 519 -4 667 -19z m-1357 -2510 c5 -2252 2 -2116 54 -2173 55 -62 120 -74 271 -51 229 34 369 42 634 36 335 -7 545 -33 826 -103 134 -33 345 -103 345 -115 0 -5 -465 -9 -1164 -9 -1052 0 -1164 2 -1170 16 -8 21 -8 4468 0 4489 5 13 22 15 103 13 96 -3 96 -3 101 -2103z m6301 2093 c2 -7 3 -1024 1 -2260 l-2 -2248 -1173 0 c-1302 1 -1237 -3 -1027 64 328 106 626 152 1060 163 252 6 427 -3 628 -33 82 -12 114 -13 151 -4 60 14 118 61 142 114 18 39 19 119 19 2122 0 1144 3 2084 7 2087 13 13 191 8 194 -5z" style="fill: rgb(255, 255, 255);"/><path d="M3284 7841 c-47 -28 -79 -79 -79 -124 0 -37 12 -50 388 -424 418 -416 412 -409 366 -467 -17 -21 -28 -26 -54 -24 -28 3 -89 59 -425 388 -382 375 -393 385 -434 388 -35 2 -50 -2 -75 -24 -40 -33 -61 -74 -61 -116 0 -29 36 -68 381 -414 359 -360 381 -384 375 -411 -8 -34 -49 -73 -78 -73 -14 0 -150 127 -408 380 -293 287 -395 382 -418 386 -90 18 -177 -121 -124 -196 40 -56 940 -939 987 -967 83 -52 172 -73 366 -87 117 -9 185 -19 205 -29 37 -20 588 -571 583 -584 -5 -11 -404 -395 -774 -743 -503 -472 -502 -472 -492 -579 13 -152 150 -265 298 -248 71 9 97 26 190 129 143 158 451 491 718 777 141 151 277 297 303 325 47 51 47 51 240 -144 241 -243 621 -639 837 -872 97 -104 179 -184 200 -194 45 -22 163 -22 214 -1 91 39 167 146 167 239 0 104 -11 116 -470 537 -140 129 -372 343 -515 476 -143 133 -278 257 -299 277 -47 42 -73 6 244 344 357 382 323 358 535 368 168 8 262 26 373 71 177 72 418 268 556 453 160 212 246 456 246 694 -1 277 -104 425 -331 473 -161 34 -341 3 -556 -96 -311 -142 -613 -475 -724 -796 -34 -98 -34 -98 -34 -318 0 -207 -2 -223 -22 -265 -16 -31 -112 -134 -313 -333 -159 -159 -294 -287 -299 -285 -17 6 -571 539 -589 566 -14 21 -18 60 -24 201 -7 207 -25 290 -77 366 -46 68 -959 971 -995 985 -40 15 -67 12 -102 -9z" style="fill: rgb(255, 255, 255);"/></g></svg>